# xmcd
#
# Track frame offsets:
#	150
#	11698
#	23403
#	37964
#	49265
#	65092
#	77902
#	86098
#	97333
#	108816
#
# Disc length: 1570 seconds
#
# Revision: 1
# Processed by: cddbd v1.5.2PL0 Copyright (c) Steve Scherf et al.
# Submitted via: audiograbber 1.83.01
#
DISCID=7a06200a
DTITLE=George Strait - Fresh Cut Christmas
DYEAR=2006
DGENRE=Country Christmas
TTITLE0=Joy To The World
TTITLE1=We Three Kings
TTITLE2=Silent Night
TTITLE3=Jingle Bells
TTITLE4=O Come, All Ye Faithful
TTITLE5=Up On The Housetop
TTITLE6=We Wish You A Merry Christmas
TTITLE7=O Christmas Tree
TTITLE8=Hark, The Harald Angels Sing
TTITLE9=Deck The Halls
EXTD=
EXTT0=
EXTT1=
EXTT2=
EXTT3=
EXTT4=
EXTT5=
EXTT6=
EXTT7=
EXTT8=
EXTT9=
PLAYORDER=
